# xmcd
#
# Track frame offsets: 
#        150
#        20887
#        45117
#        67700
#        90545
#        111260
#        126905
#        155390
#        176897
#        209835
#
# Disc length: 3149 seconds
#
# Revision: 4
# Processed by: cddbd v1.5.2PL0 Copyright (c) Steve Scherf et al.
# Submitted via: ExactAudioCopy v0.95b4
#
DISCID=860c4b0a
DTITLE=Kenny Burrell and Grover Washington Jr. - Togethering
DYEAR=1985
DGENRE=Jazz
TTITLE0=Soulero
TTITLE1=Sails of Your Soul
TTITLE2=Day Dream
TTITLE3=A Beautiful Friendship
TTITLE4=Togethering
TTITLE5=Romance Dance
TTITLE6=Asphalt Canyon Blues
TTITLE7=What am I Here For?
TTITLE8=Summertime
TTITLE9=I'm Glad There is You
EXTD=YEAR: 1985
EXTT0=
EXTT1=
EXTT2=
EXTT3=
EXTT4=
EXTT5=
EXTT6=
EXTT7=
EXTT8=
EXTT9=
PLAYORDER=
